<mxfile host="app.diagrams.net" modified="2023-11-20T05:27:42.853Z" agent="Mozilla/5.0 (Windows NT 10.0; Win64; x64) AppleWebKit/537.36 (KHTML, like Gecko) Chrome/119.0.0.0 Safari/537.36" version="22.1.3" etag="4NZZBOMRR9otyRE5sUVO" type="github">
  <diagram name="Page-1" id="U_jEbf7C83mb1jgyKK4n">
    <mxGraphModel>
      <root>
        <mxCell id="0" />
        <mxCell id="1" parent="0" />
      </root>
    </mxGraphModel>
  </diagram>
</mxfile>
